<?xml version="1.0" standalone="no"?>
<!DOCTYPE svg PUBLIC "-//W3C//DTD SVG 20010904//EN"
 "http://www.w3.org/TR/2001/REC-SVG-20010904/DTD/svg10.dtd">
<svg version="1.0" xmlns="http://www.w3.org/2000/svg"
 width="2048.000000pt" height="2048.000000pt" viewBox="0 0 2048.000000 2048.000000"
 preserveAspectRatio="xMidYMid meet">
<metadata>
Created by potrace 1.11, written by Peter Selinger 2001-2013
</metadata>
<g transform="translate(0.000000,2048.000000) scale(0.100000,-0.100000)"
fill="#000000" stroke="none">
<path d="M10591 19389 c-14 -5 -31 -7 -38 -5 -7 3 -13 -1 -13 -9 0 -7 -10 -17
-22 -21 -13 -4 -39 -17 -59 -30 -20 -13 -40 -20 -43 -17 -3 4 -6 -1 -6 -10 0
-9 -5 -17 -11 -17 -14 0 -138 -127 -131 -134 3 -3 -3 -8 -12 -12 -9 -3 -16
-12 -16 -19 0 -7 -7 -15 -15 -19 -8 -3 -15 -15 -15 -26 0 -11 -4 -20 -10 -20
-5 0 -10 -9 -10 -20 0 -11 -4 -20 -9 -20 -5 0 -14 -13 -20 -30 -5 -16 -14 -30
-19 -30 -5 0 -8 -10 -7 -22 1 -13 -4 -32 -11 -43 -8 -11 -14 -29 -14 -42 0
-12 -6 -28 -12 -35 -7 -7 -13 -33 -14 -58 -1 -25 -4 -58 -7 -75 -8 -35 -9
-175 -2 -225 3 -19 7 -56 10 -82 2 -27 9 -57 15 -67 5 -11 10 -31 10 -44 0
-14 7 -37 14 -53 8 -15 13 -31 10 -36 -3 -4 2 -18 10 -30 9 -12 16 -32 16 -44
0 -12 6 -24 12 -26 7 -3 13 -11 14 -19 1 -20 36 -99 43 -99 4 0 7 -9 8 -20 1
-11 9 -27 17 -36 9 -9 14 -20 10 -25 -3 -5 2 -12 10 -15 9 -3 16 -15 16 -25 0
-10 3 -19 8 -19 11 0 42 -59 42 -81 0 -11 4 -17 10 -14 5 3 18 -11 27 -32 10
-21 28 -49 40 -62 12 -14 20 -28 17 -32 -2 -5 5 -13 16 -19 13 -7 19 -17 16
-26 -3 -9 -1 -12 4 -9 5 3 15 -5 22 -19 6 -14 14 -26 18 -26 4 0 13 -13 20
-29 6 -16 18 -32 26 -35 8 -3 14 -10 14 -16 0 -5 10 -21 23 -36 12 -14 21 -29
21 -32 -1 -4 7 -13 17 -20 11 -7 19 -20 19 -28 0 -8 4 -14 8 -14 4 0 16 -14
26 -31 10 -16 40 -59 67 -95 27 -35 47 -64 45 -64 -3 0 8 -15 25 -32 16 -18
29 -36 29 -41 0 -11 62 -101 73 -105 4 -2 5 -7 2 -12 -3 -4 2 -13 10 -20 8 -7
15 -18 15 -26 0 -7 8 -17 18 -23 9 -5 16 -12 15 -15 -3 -9 50 -121 59 -124 4
-2 6 -7 3 -12 -3 -5 1 -14 8 -22 7 -7 21 -33 30 -58 10 -25 25 -58 33 -73 8
-16 14 -40 14 -53 0 -13 5 -24 10 -24 6 0 10 -15 10 -33 0 -18 4 -37 10 -43 5
-5 12 -32 15 -59 2 -28 9 -63 13 -80 18 -62 19 -430 1 -500 -4 -16 -10 -54
-13 -84 -4 -30 -10 -59 -15 -65 -5 -6 -10 -29 -12 -51 -1 -22 -6 -45 -11 -51
-4 -6 -9 -25 -10 -43 -1 -18 -6 -35 -10 -37 -5 -3 -6 -10 -3 -15 4 -5 1 -9 -4
-9 -6 0 -11 -9 -11 -20 0 -17 -18 -66 -41 -112 -5 -10 -9 -26 -9 -36 0 -10 -5
-23 -10 -28 -6 -6 -12 -21 -15 -34 -2 -12 -11 -30 -18 -39 -8 -9 -12 -22 -9
-30 2 -8 -1 -19 -9 -25 -8 -6 -15 -18 -17 -26 -6 -29 -63 -140 -73 -140 -6 0
-7 -5 -4 -10 4 -6 0 -22 -9 -35 -9 -13 -16 -31 -16 -39 0 -8 -4 -16 -9 -18 -9
-3 -65 -106 -66 -121 0 -4 -5 -11 -11 -15 -6 -4 -14 -17 -18 -29 -4 -13 -12
-23 -17 -23 -6 0 -8 -4 -4 -9 3 -5 -1 -16 -10 -24 -8 -8 -16 -21 -17 -28 -2
-8 -9 -20 -16 -27 -7 -8 -10 -18 -7 -23 4 -5 1 -9 -5 -9 -6 0 -16 -13 -21 -30
-6 -16 -15 -30 -21 -30 -5 0 -7 -4 -4 -9 3 -5 -1 -14 -9 -21 -8 -7 -15 -18
-15 -25 0 -7 -7 -16 -16 -19 -8 -3 -13 -10 -10 -15 3 -5 -1 -14 -9 -21 -8 -7
-15 -19 -15 -27 0 -7 -7 -16 -15 -19 -8 -4 -13 -10 -10 -14 2 -4 -4 -18 -15
-30 -11 -12 -17 -27 -14 -31 3 -5 -2 -12 -10 -15 -9 -3 -14 -10 -11 -14 3 -4
-2 -13 -10 -20 -8 -7 -15 -18 -15 -24 0 -7 -9 -22 -20 -34 -12 -12 -18 -22
-14 -22 4 0 0 -8 -9 -18 -10 -10 -15 -21 -12 -24 3 -3 -1 -11 -10 -18 -8 -7
-15 -21 -15 -30 0 -10 -4 -20 -9 -22 -9 -3 -62 -104 -60 -115 0 -3 -6 -10 -15
-15 -9 -5 -16 -18 -16 -29 0 -11 -6 -22 -14 -25 -8 -3 -13 -14 -11 -25 2 -10
-1 -19 -6 -19 -6 0 -15 -13 -20 -30 -6 -16 -15 -30 -19 -30 -5 0 -7 -9 -5 -19
2 -11 -3 -25 -11 -32 -8 -6 -14 -16 -14 -22 0 -15 -40 -96 -50 -102 -4 -3 -6
-14 -3 -25 3 -11 0 -20 -6 -20 -6 0 -10 -3 -9 -7 1 -8 -7 -33 -23 -68 -5 -11
-10 -30 -12 -42 -2 -11 -9 -28 -16 -36 -6 -9 -13 -26 -14 -39 0 -13 -5 -26
-10 -29 -5 -4 -10 -23 -12 -42 -2 -20 -8 -44 -13 -54 -6 -10 -12 -31 -15 -48
-3 -16 -9 -41 -15 -55 -5 -14 -8 -33 -7 -42 2 -10 -1 -20 -6 -24 -5 -3 -7 -9
-4 -14 3 -5 0 -21 -6 -37 -6 -15 -12 -51 -14 -80 -1 -28 -5 -55 -8 -60 -4 -6
-9 -43 -11 -84 -3 -42 -8 -95 -11 -119 -21 -162 -20 -298 0 -520 3 -30 7 -80
9 -111 2 -31 6 -61 10 -67 3 -6 8 -36 11 -69 2 -32 7 -68 10 -80 3 -13 7 -33
10 -45 3 -13 7 -38 9 -56 2 -18 8 -38 13 -45 5 -6 11 -30 12 -52 2 -22 7 -43
12 -46 5 -3 10 -21 12 -40 2 -19 7 -41 12 -49 5 -8 11 -26 13 -40 2 -14 9 -32
16 -40 8 -8 13 -27 12 -42 -1 -15 4 -30 11 -32 7 -3 13 -16 13 -29 0 -13 5
-28 12 -35 6 -6 13 -22 15 -34 2 -13 8 -24 13 -26 6 -2 10 -17 10 -33 0 -16 6
-32 13 -35 7 -2 14 -14 14 -26 1 -12 6 -24 10 -27 5 -3 17 -26 28 -51 10 -25
25 -52 32 -61 7 -8 13 -23 13 -32 0 -9 3 -17 8 -17 8 0 38 -61 34 -73 -1 -4 5
-10 13 -13 8 -4 15 -12 15 -19 0 -7 7 -18 15 -25 9 -7 14 -19 11 -27 -3 -7 1
-13 10 -13 8 0 13 -4 9 -9 -3 -5 1 -15 8 -23 15 -16 51 -70 53 -80 1 -5 2 -12
3 -18 0 -5 10 -10 20 -10 15 0 19 7 19 30 -1 17 -4 30 -9 30 -4 0 -7 19 -7 43
0 23 -6 56 -12 72 -7 17 -13 53 -14 80 -2 28 -5 59 -9 70 -28 95 -44 775 -18
775 3 0 5 33 4 72 -1 40 3 91 9 113 5 22 12 69 14 105 2 36 8 76 13 90 5 14
12 49 16 79 3 29 8 59 12 64 4 6 8 29 9 51 2 21 7 42 12 45 6 3 13 28 16 55 2
27 10 54 15 59 6 6 11 23 11 39 0 15 6 33 13 39 7 7 11 26 9 46 -2 18 0 33 6
33 5 0 15 23 22 50 7 28 16 50 20 50 5 0 7 9 5 19 -2 11 3 25 11 32 8 6 14 25
14 41 0 16 6 31 14 34 7 3 12 16 10 29 -1 13 4 29 12 36 8 6 14 19 14 28 0 9
7 27 16 39 8 12 13 22 10 22 -8 0 36 84 48 92 6 4 7 10 3 14 -4 4 0 15 9 25 8
9 17 23 19 31 6 28 30 78 37 78 4 0 8 9 8 19 0 11 5 21 11 23 5 2 11 10 12 18
1 8 10 26 19 39 10 13 15 28 13 32 -3 4 2 9 10 13 8 3 15 12 15 20 0 8 4 16 9
18 5 2 11 10 13 18 2 8 10 20 18 27 8 6 15 15 16 20 1 17 27 63 36 63 4 0 8 6
8 14 0 7 7 19 15 26 9 7 14 15 11 17 -2 2 9 18 24 34 15 17 34 43 41 57 8 15
23 36 34 47 12 11 27 32 34 47 7 14 26 40 42 58 16 17 29 33 29 36 0 5 28 39
53 66 9 10 17 25 17 33 0 8 7 15 15 15 8 0 15 6 15 14 0 8 7 17 16 20 8 3 12
10 9 16 -3 5 1 10 9 10 9 0 15 3 13 8 -2 8 9 23 58 75 16 18 28 33 27 35 -7 8
0 22 10 19 7 -1 12 3 13 10 0 7 11 26 25 42 14 17 35 43 47 58 13 16 23 34 23
41 0 7 5 10 10 7 6 -3 10 -2 10 4 0 6 10 19 22 31 12 11 18 20 14 20 -5 0 6
17 23 38 49 58 51 60 51 72 0 5 7 10 15 10 9 0 12 6 9 15 -4 8 -1 15 5 15 7 0
15 8 18 18 4 9 12 22 17 29 22 25 31 39 50 76 11 20 23 37 28 37 4 0 8 9 8 20
0 11 5 20 10 20 6 0 10 7 10 15 0 8 4 15 9 15 5 0 14 14 20 30 5 17 15 30 21
30 6 0 8 4 5 10 -3 5 3 17 14 27 11 9 18 21 15 25 -3 5 0 17 8 26 16 20 36 61
40 82 2 8 9 20 16 25 7 6 14 20 15 33 0 12 5 22 9 22 4 0 8 9 8 20 0 11 9 29
19 39 11 11 17 22 14 25 -3 3 -2 13 2 23 5 10 7 21 7 26 -1 4 3 7 9 7 5 0 7 4
4 10 -3 5 1 22 9 37 8 16 16 43 19 61 3 18 10 38 15 45 5 7 8 21 6 32 -1 10 2
25 8 32 6 7 7 13 4 13 -4 0 -2 9 5 21 6 12 12 47 14 78 2 60 12 101 23 101 11
0 5 289 -6 303 -5 6 -10 19 -10 27 -2 46 -16 127 -23 142 -5 9 -11 36 -14 60
-3 23 -9 45 -13 48 -4 3 -9 21 -11 40 -2 19 -7 37 -11 40 -5 3 -12 21 -15 40
-3 19 -11 40 -17 47 -6 8 -8 16 -5 19 3 4 -3 16 -14 27 -11 12 -17 27 -15 33
3 7 -2 18 -10 24 -8 7 -14 21 -14 31 0 11 -4 19 -8 19 -5 0 -19 23 -32 50 -13
28 -27 50 -32 50 -5 0 -7 4 -3 9 3 5 -2 16 -10 24 -8 9 -15 18 -15 21 0 3 -11
17 -25 32 -14 15 -23 29 -21 32 3 2 -11 19 -29 38 -19 19 -32 34 -29 34 7 0
-35 59 -61 86 -11 11 -36 40 -55 64 -69 85 -103 125 -121 141 -11 9 -19 19
-19 23 0 4 -10 18 -22 32 -13 13 -32 35 -43 47 -11 12 -19 25 -18 29 2 4 -6
10 -17 13 -11 4 -20 13 -20 21 0 8 -7 14 -15 14 -8 0 -14 3 -13 8 2 4 -15 26
-37 48 -75 78 -140 157 -137 166 1 5 -1 7 -5 5 -10 -6 -34 19 -26 27 4 3 1 6
-6 6 -8 0 -30 19 -50 42 -20 23 -44 50 -53 60 -10 10 -15 18 -12 18 4 0 -11
18 -32 39 -90 91 -108 111 -99 111 6 0 6 3 0 8 -22 16 -134 170 -128 176 3 3
-1 6 -10 6 -9 0 -17 6 -17 14 0 7 -7 19 -15 26 -8 7 -12 16 -9 21 3 5 -2 12
-10 15 -9 3 -14 10 -11 14 3 4 -2 11 -11 14 -8 3 -12 10 -9 16 3 5 1 10 -4 10
-6 0 -11 7 -11 15 0 8 -4 15 -10 15 -5 0 -10 5 -10 11 0 6 -7 17 -15 26 -8 8
-13 19 -9 24 3 5 -1 12 -10 15 -8 3 -18 19 -21 35 -4 16 -11 29 -16 29 -5 0
-9 9 -9 20 0 11 -4 20 -10 20 -5 0 -10 7 -10 15 0 8 -9 32 -20 52 -10 20 -17
40 -14 45 3 4 0 8 -5 8 -6 0 -11 11 -11 25 0 14 -7 28 -15 31 -8 4 -15 16 -15
28 0 12 -4 26 -9 31 -5 6 -11 24 -13 40 -1 17 -7 33 -11 36 -5 3 -10 21 -12
40 -2 19 -8 54 -14 79 -14 59 -14 205 0 250 5 19 10 52 10 73 0 20 4 37 9 37
5 0 12 17 16 38 4 20 10 42 14 47 5 6 10 24 12 40 2 17 8 29 16 28 10 -3 14
15 12 52 -1 3 6 13 15 21 8 9 13 20 9 25 -3 5 2 12 10 15 9 3 16 14 16 24 0
11 5 22 10 25 16 10 1 25 -23 24 -12 0 -33 -5 -46 -10z"/>
<path d="M9038 16731 c-15 -5 -29 -7 -32 -4 -3 3 -19 0 -37 -7 -22 -9 -33 -10
-38 -2 -6 11 -125 -42 -155 -69 -8 -8 -30 -25 -48 -38 -41 -29 -165 -195 -173
-231 -1 -3 -7 -18 -14 -35 -42 -99 -51 -139 -53 -250 -1 -61 9 -142 20 -160 4
-5 7 -16 9 -24 4 -30 21 -34 45 -9 58 61 121 83 238 82 82 -1 163 -30 222 -79
40 -34 118 -129 118 -144 0 -6 5 -11 11 -11 5 0 7 -4 4 -10 -3 -5 -1 -10 4
-10 6 0 11 -7 11 -15 0 -9 7 -32 16 -53 18 -40 20 -48 30 -107 11 -64 12 -289
1 -302 -5 -7 -7 -13 -5 -13 5 0 -3 -47 -16 -97 -3 -13 -8 -31 -10 -40 -2 -10
-9 -30 -15 -45 -6 -16 -8 -28 -6 -28 3 0 -2 -11 -11 -25 -9 -14 -13 -25 -9
-25 4 0 0 -11 -9 -25 -9 -14 -14 -25 -11 -25 3 0 -2 -15 -12 -32 -9 -18 -16
-36 -15 -40 1 -5 -2 -8 -8 -8 -6 0 -9 -3 -9 -7 3 -18 -2 -33 -16 -47 -8 -8
-16 -23 -18 -34 -2 -11 -8 -26 -13 -34 -10 -12 -25 -47 -25 -58 0 -3 -7 -12
-15 -22 -9 -9 -17 -22 -19 -30 -9 -37 -18 -58 -26 -58 -5 0 -9 -9 -9 -19 0
-11 -5 -23 -10 -26 -6 -4 -8 -10 -5 -15 2 -4 -4 -19 -15 -33 -11 -14 -20 -28
-20 -32 0 -3 -22 -54 -50 -112 -27 -58 -50 -108 -50 -110 0 -3 -24 -67 -54
-142 -68 -171 -124 -326 -132 -366 -2 -8 -22 -80 -50 -180 -3 -11 -6 -28 -6
-37 1 -10 -3 -20 -9 -23 -5 -4 -9 -19 -9 -35 0 -16 -4 -31 -9 -35 -6 -3 -10
-13 -10 -23 1 -17 -8 -75 -12 -79 -1 -2 -3 -12 -4 -23 -1 -11 -4 -22 -5 -25
-1 -3 -3 -13 -4 -22 -2 -10 -6 -38 -10 -63 -4 -25 -9 -58 -11 -75 -2 -16 -4
-30 -5 -30 -2 0 -11 -97 -14 -142 -1 -18 -4 -34 -7 -37 -11 -11 4 -506 16
-526 2 -3 6 -28 9 -55 4 -28 8 -61 11 -75 3 -14 8 -42 10 -64 3 -21 10 -46 15
-55 5 -10 10 -28 12 -42 2 -13 6 -28 9 -34 4 -5 9 -27 13 -47 4 -21 23 -79 42
-130 19 -51 36 -98 38 -105 1 -7 5 -16 9 -19 4 -4 7 -16 7 -26 0 -10 4 -18 9
-18 5 0 11 -10 15 -22 5 -20 31 -72 114 -224 7 -13 18 -24 23 -24 6 0 8 -4 5
-8 -3 -5 4 -18 14 -30 11 -12 20 -25 20 -29 0 -4 10 -20 23 -35 12 -15 29 -36
37 -46 8 -11 38 -45 65 -77 47 -54 77 -84 160 -160 42 -39 151 -115 165 -115
5 0 10 -4 10 -9 0 -9 90 -57 101 -54 4 1 15 -7 24 -17 18 -19 55 -28 55 -12
-1 12 -38 52 -49 52 -6 0 -11 5 -11 10 0 10 -27 49 -122 176 -21 28 -38 54
-38 58 0 3 -16 29 -35 56 -19 27 -34 51 -33 52 1 2 -15 31 -35 66 -20 35 -37
70 -37 78 0 7 -3 14 -8 14 -4 0 -13 15 -21 33 -7 17 -22 49 -32 70 -11 21 -19
44 -19 52 0 8 -4 15 -9 15 -5 0 -13 15 -16 33 -4 17 -11 37 -17 43 -5 7 -8 16
-7 20 2 5 -5 25 -14 44 -16 35 -69 218 -73 255 -1 11 -3 21 -4 23 -2 1 -4 11
-5 22 -1 11 -3 21 -5 23 -2 3 -8 34 -15 82 -3 22 -8 51 -10 65 -8 46 -16 124
-20 183 -1 31 -8 64 -15 72 -9 10 -10 32 -5 72 4 32 9 101 10 153 1 52 4 102
8 110 3 8 9 33 12 55 9 52 13 70 24 125 15 74 19 88 29 107 5 10 7 24 5 31 -3
6 0 12 5 12 6 0 9 8 8 18 -3 17 0 25 21 67 6 12 14 35 18 53 3 18 11 32 16 32
5 0 8 3 8 8 -4 24 4 43 30 71 17 18 31 42 33 54 2 12 8 25 13 29 6 4 10 11 10
15 1 4 6 18 13 31 7 12 9 22 5 22 -4 0 -3 4 3 8 5 4 29 45 52 92 23 47 53 104
66 127 14 22 23 43 20 46 -2 2 2 10 11 17 8 7 15 16 15 21 0 5 8 18 18 29 9
11 17 24 17 28 1 8 25 50 55 97 29 44 63 109 61 114 -2 2 2 7 8 10 11 7 49 72
78 134 10 20 21 37 26 37 4 0 5 5 2 10 -3 6 -2 10 3 10 5 0 12 8 16 18 3 9 15
31 26 47 10 17 45 80 76 140 31 61 60 117 64 125 16 29 72 150 74 163 2 6 13
33 25 59 12 26 21 49 21 50 -1 2 6 21 16 43 9 22 16 41 15 43 0 1 -1 3 0 5 0
1 2 11 4 21 2 10 7 22 12 25 5 3 8 18 8 34 -1 15 2 27 5 27 7 0 38 113 46 165
2 11 5 31 7 45 25 136 29 180 27 335 -1 181 -5 250 -16 266 -4 7 -9 24 -10 38
-1 14 -5 37 -9 51 -4 14 -8 32 -9 40 -1 9 -5 21 -10 28 -4 6 -5 15 -3 20 3 4
-3 25 -14 46 -10 22 -19 44 -19 49 0 11 -50 115 -63 132 -4 5 -26 39 -49 74
-23 35 -48 65 -55 68 -7 3 -10 9 -7 14 3 5 -2 12 -10 15 -9 3 -16 11 -16 18
-1 10 -13 22 -95 91 -69 59 -164 114 -199 117 -20 1 -36 5 -36 9 0 4 -21 12
-47 19 -27 7 -55 15 -63 17 -64 17 -160 24 -192 14z"/>
<path d="M9563 14025 c-54 -77 -153 -248 -153 -263 0 -7 -3 -12 -7 -12 -5 0
-13 -10 -19 -23 -6 -12 -38 -75 -71 -139 -47 -90 -58 -118 -46 -120 9 -2 61 0
117 4 55 3 162 9 236 12 127 5 270 12 298 15 6 0 12 6 12 12 0 10 16 46 88
201 9 21 20 38 25 38 4 0 7 7 7 15 0 9 10 32 23 53 24 38 34 60 35 76 0 5 4
12 10 15 5 3 26 37 47 74 l38 68 -313 -3 c-300 -3 -313 -4 -327 -23z"/>
<path d="M11630 13937 c-11 -12 -18 -25 -17 -29 1 -3 -9 -17 -23 -30 -14 -13
-45 -50 -69 -83 -25 -33 -48 -61 -53 -63 -4 -2 -8 -9 -8 -15 0 -7 -12 -25 -26
-42 -15 -16 -38 -48 -53 -70 -14 -22 -31 -46 -38 -52 -6 -7 -21 -29 -34 -50
-13 -21 -28 -41 -33 -45 -13 -9 -11 -9 29 -13 75 -7 163 -16 200 -21 22 -2 63
-7 90 -9 28 -3 66 -7 85 -10 19 -3 58 -7 85 -10 28 -3 61 -7 75 -10 14 -3 45
-8 70 -11 25 -3 56 -7 70 -10 14 -3 45 -7 70 -10 25 -3 61 -9 80 -14 19 -4 42
-8 50 -8 8 0 26 -3 40 -6 14 -4 43 -9 64 -11 22 -3 59 -10 83 -15 24 -6 60
-13 80 -16 20 -3 46 -10 59 -14 12 -5 24 -7 26 -5 2 2 25 -2 51 -10 26 -8 51
-14 55 -15 10 0 72 -12 97 -17 11 -3 27 -6 35 -7 8 -2 35 -9 60 -16 25 -8 47
-14 50 -15 3 0 23 -5 45 -10 46 -10 53 -12 60 -15 6 -3 11 -4 50 -14 73 -18
141 -40 153 -49 6 -5 12 -6 12 -2 0 4 7 2 15 -5 8 -7 15 -10 15 -6 0 3 12 1
28 -5 15 -6 34 -12 42 -14 8 -2 41 -13 73 -24 31 -11 57 -18 57 -15 0 2 10 -2
23 -10 12 -8 27 -16 32 -17 13 -2 36 -9 55 -17 8 -3 20 -6 26 -7 6 0 18 -6 27
-14 9 -7 21 -10 27 -6 5 3 10 1 10 -4 0 -6 3 -10 8 -9 4 1 16 -3 27 -9 11 -6
22 -11 25 -11 35 -3 371 -157 378 -174 2 -4 8 -8 14 -8 5 0 42 -19 81 -42 40
-23 84 -49 99 -58 15 -8 39 -25 53 -37 14 -13 28 -23 31 -23 4 0 21 -12 39
-27 17 -16 52 -44 76 -63 24 -19 55 -47 70 -62 15 -14 30 -24 32 -21 3 2 11
-10 18 -26 8 -17 19 -31 26 -31 6 0 21 -16 33 -35 12 -20 27 -41 33 -48 27
-29 57 -77 57 -91 0 -8 6 -19 14 -23 8 -4 15 -12 17 -18 2 -14 5 -23 28 -91
17 -49 21 -85 21 -197 0 -75 -4 -138 -9 -142 -6 -3 -8 -14 -6 -25 2 -11 0 -20
-5 -20 -5 0 -12 -15 -15 -32 -4 -18 -10 -35 -14 -38 -3 -3 -17 -27 -31 -55
-14 -27 -29 -53 -35 -57 -5 -4 -7 -8 -3 -8 4 0 -9 -17 -28 -37 -19 -21 -36
-45 -39 -53 -3 -9 -23 -31 -45 -49 -22 -18 -37 -38 -33 -43 3 -6 1 -8 -4 -5
-13 8 -36 -17 -25 -28 4 -5 2 -5 -5 -1 -6 3 -15 1 -20 -6 -4 -7 -15 -17 -25
-23 -9 -5 -45 -31 -80 -57 -118 -89 -255 -178 -274 -178 -7 0 -14 -4 -16 -9
-1 -5 -10 -11 -18 -13 -8 -2 -17 -6 -20 -9 -5 -5 -114 -59 -235 -115 -27 -12
-79 -34 -115 -49 -36 -14 -74 -30 -85 -34 -11 -5 -33 -14 -50 -20 -16 -6 -43
-16 -60 -22 -16 -7 -33 -13 -37 -14 -5 -2 -9 -3 -10 -5 -2 -1 -12 -3 -23 -4
-11 -2 -44 -13 -72 -24 -29 -12 -53 -20 -53 -17 0 2 -17 -3 -37 -12 -21 -8
-49 -20 -63 -26 -14 -5 -38 -11 -55 -12 -16 -1 -43 -8 -60 -17 -16 -8 -36 -13
-42 -11 -7 3 -13 0 -13 -5 0 -5 -12 -8 -27 -7 -16 1 -35 -2 -43 -6 -34 -17
-67 -27 -115 -34 -30 -4 -75 -15 -130 -33 -16 -5 -38 -8 -47 -6 -10 1 -20 -2
-24 -7 -3 -5 -16 -9 -29 -9 -13 0 -36 -5 -52 -12 -15 -6 -41 -12 -58 -14 -16
-1 -41 -5 -55 -8 -50 -11 -82 -18 -103 -21 -12 -2 -33 -6 -47 -10 -14 -4 -50
-9 -80 -11 -30 -3 -73 -10 -95 -16 -22 -7 -53 -13 -70 -15 -68 -8 -182 -23
-210 -28 -16 -4 -43 -8 -60 -9 -16 -2 -37 -6 -45 -9 -8 -3 -53 -8 -100 -11
-47 -3 -103 -8 -125 -11 -22 -3 -58 -7 -80 -9 -22 -1 -53 -6 -70 -9 -27 -5
-136 -13 -330 -24 -38 -2 -113 -6 -165 -9 -544 -31 -1049 -31 -1515 1 -44 2
-109 6 -145 8 -180 10 -327 20 -345 24 -11 2 -45 6 -75 9 -30 3 -71 7 -90 10
-19 3 -71 7 -115 10 -44 3 -87 8 -95 11 -8 3 -26 7 -40 9 -14 1 -34 5 -45 7
-18 4 -87 13 -170 22 -16 2 -41 6 -55 9 -14 4 -36 8 -50 10 -14 2 -43 8 -65
12 -22 4 -51 9 -65 9 -14 1 -27 3 -30 4 -6 3 -56 11 -90 14 -14 1 -27 5 -30 9
-3 4 -23 10 -45 13 -85 11 -88 12 -170 33 -22 6 -58 13 -79 17 -22 3 -65 13
-95 22 -31 10 -65 18 -76 19 -11 0 -28 4 -37 8 -9 4 -22 4 -29 0 -7 -4 -9 -3
-6 3 6 10 -20 18 -83 27 -22 3 -53 13 -100 33 -8 3 -22 7 -30 8 -32 3 -86 18
-105 30 -11 7 -30 12 -42 10 -13 -1 -23 1 -23 5 0 4 -6 7 -12 8 -16 1 -188 63
-285 103 -40 16 -79 29 -88 29 -8 0 -15 4 -15 10 0 5 -12 12 -27 16 -16 3 -50
17 -78 29 -55 26 -89 38 -92 33 -1 -2 -8 4 -15 13 -7 9 -25 19 -40 23 -15 3
-33 13 -42 21 -8 8 -24 15 -35 15 -12 0 -21 5 -21 11 0 5 -15 17 -32 24 -18 8
-58 31 -88 50 -30 19 -63 38 -72 41 -10 4 -18 10 -18 14 0 4 -30 26 -66 50
-36 23 -77 53 -91 66 -14 13 -30 21 -35 18 -4 -3 -7 -2 -6 3 2 4 -33 44 -77
88 -79 79 -169 200 -196 263 -8 17 -17 32 -20 32 -3 0 -5 11 -4 24 2 13 -3 36
-11 51 -7 14 -17 43 -20 63 -12 58 -7 214 7 247 14 35 15 39 27 85 26 102 164
287 296 395 27 22 58 48 68 58 10 9 21 17 24 17 3 0 20 11 38 25 18 14 36 25
40 25 4 0 18 12 31 26 14 15 25 24 25 21 0 -3 28 12 63 33 34 22 132 74 217
115 85 42 172 84 192 95 20 11 42 20 48 20 6 0 30 9 52 20 23 11 49 20 58 20
8 0 27 8 40 17 14 10 26 17 27 16 2 -2 10 0 18 2 8 3 22 7 30 10 8 2 17 3 19
2 1 -1 10 4 19 12 10 7 17 10 17 6 0 -4 6 -3 13 2 10 8 35 17 77 28 3 0 30 9
60 20 30 11 58 18 62 17 4 -1 29 8 55 19 41 18 74 25 131 31 6 1 12 5 12 9 0
7 64 23 93 22 9 0 17 4 17 9 0 5 4 7 9 4 5 -3 28 1 51 9 42 15 75 23 115 29
11 1 37 8 58 15 43 14 75 21 127 24 20 2 40 6 45 9 6 3 26 9 45 14 19 4 42 9
50 11 8 2 31 6 50 7 19 2 55 8 80 14 77 18 165 33 221 36 19 1 41 6 47 10 7 4
26 8 42 8 34 1 44 11 55 53 5 17 9 35 11 40 2 6 5 19 7 30 3 11 17 61 31 111
15 50 29 100 31 110 5 23 34 111 45 139 4 11 13 33 19 48 15 37 14 44 -4 44
-8 0 -15 -3 -15 -6 0 -3 -26 -6 -57 -5 -32 0 -62 -2 -68 -5 -5 -3 -17 -6 -25
-8 -8 -1 -31 -5 -50 -8 -33 -7 -58 -11 -123 -20 -15 -2 -39 -6 -55 -9 -15 -2
-46 -8 -69 -12 -24 -3 -43 -9 -43 -13 0 -3 -17 -7 -38 -8 -62 -4 -106 -10
-122 -16 -27 -10 -105 -28 -135 -31 -54 -6 -105 -18 -105 -25 0 -4 -8 -7 -17
-8 -29 -2 -74 -10 -148 -28 -99 -23 -94 -22 -155 -40 -30 -9 -62 -17 -70 -18
-63 -12 -98 -21 -115 -30 -11 -6 -22 -12 -25 -12 -45 -11 -72 -18 -105 -27
-51 -15 -47 -14 -65 -20 -42 -16 -121 -41 -168 -53 -29 -7 -58 -18 -65 -22 -7
-5 -32 -15 -57 -22 -25 -7 -49 -17 -55 -21 -5 -4 -26 -11 -45 -15 -19 -4 -50
-16 -68 -26 -18 -10 -39 -19 -45 -19 -7 -1 -30 -9 -52 -20 -22 -11 -44 -19
-48 -20 -9 0 -124 -49 -191 -81 -21 -10 -42 -17 -46 -14 -3 2 -12 -5 -20 -15
-8 -10 -17 -17 -21 -14 -9 5 -219 -98 -262 -128 -16 -11 -31 -18 -34 -15 -3 4
-20 -5 -38 -18 -17 -14 -34 -25 -38 -25 -5 0 -207 -119 -233 -137 -6 -5 -33
-22 -60 -40 -91 -60 -143 -98 -144 -105 0 -5 -5 -8 -12 -8 -7 0 -22 -10 -33
-23 -11 -12 -32 -28 -47 -36 -15 -8 -25 -18 -22 -23 3 -4 0 -8 -5 -8 -14 0
-88 -56 -133 -101 -19 -19 -56 -52 -82 -73 -25 -21 -44 -41 -42 -44 3 -2 -22
-31 -55 -63 -32 -33 -59 -63 -59 -68 0 -4 -13 -20 -30 -36 -16 -16 -30 -33
-30 -38 0 -4 -6 -14 -12 -21 -27 -27 -63 -79 -60 -88 1 -4 -2 -8 -6 -8 -12 0
-61 -77 -68 -106 -3 -13 -11 -24 -16 -24 -6 0 -7 -7 -4 -16 3 -8 2 -12 -4 -9
-6 3 -13 -2 -16 -12 -3 -10 -17 -41 -30 -68 -13 -28 -24 -54 -24 -59 0 -6 -9
-29 -21 -53 -11 -24 -22 -53 -24 -65 -2 -13 -11 -50 -20 -82 -38 -137 -36
-449 4 -576 12 -36 21 -74 21 -85 0 -11 7 -30 15 -41 8 -12 11 -24 8 -28 -3
-3 -2 -6 4 -6 6 0 13 -14 17 -32 6 -32 54 -139 65 -148 4 -3 15 -22 24 -42 9
-20 21 -38 25 -40 4 -2 16 -21 27 -42 11 -22 25 -44 31 -50 6 -6 27 -35 47
-64 50 -70 47 -67 204 -227 153 -155 287 -275 308 -275 4 0 18 -11 31 -25 13
-14 27 -25 32 -25 5 0 17 -9 27 -20 10 -11 27 -22 39 -26 11 -4 28 -14 36 -24
8 -9 22 -19 30 -23 8 -4 49 -29 90 -57 41 -27 86 -55 100 -61 14 -6 38 -21 55
-33 29 -22 119 -68 130 -67 3 1 28 -15 55 -34 27 -19 55 -35 61 -35 10 0 68
-29 79 -40 6 -6 30 -12 48 -13 6 0 12 -3 12 -7 0 -6 44 -31 65 -36 6 -1 44
-18 85 -37 98 -44 113 -51 126 -52 6 0 18 -5 25 -11 8 -6 32 -17 54 -24 22 -7
52 -19 68 -27 15 -8 35 -16 45 -18 9 -2 47 -15 85 -29 37 -14 67 -24 67 -21 0
3 12 -2 27 -12 14 -10 38 -19 52 -20 14 -2 42 -10 61 -17 63 -25 75 -30 85
-32 45 -8 75 -18 75 -25 0 -5 11 -9 24 -9 20 0 61 -10 106 -27 17 -7 14 -6 90
-28 30 -9 62 -18 70 -20 8 -2 15 -4 15 -5 0 -1 9 -3 20 -5 51 -10 118 -27 145
-38 8 -3 38 -10 65 -16 56 -10 75 -15 160 -35 33 -8 76 -18 95 -21 37 -6 46
-8 70 -18 18 -7 83 -17 128 -19 17 -1 32 -7 32 -12 0 -5 3 -7 6 -4 3 4 20 2
37 -3 29 -9 56 -13 142 -24 17 -2 41 -6 55 -9 107 -24 141 -29 185 -31 28 -2
50 -4 50 -5 0 -1 14 -4 30 -6 17 -2 53 -8 80 -14 47 -10 74 -13 220 -25 33 -3
89 -10 125 -16 36 -6 97 -12 135 -15 39 -2 102 -7 140 -10 39 -3 90 -7 115 -9
25 -1 61 -6 80 -10 48 -11 316 -16 840 -16 601 0 803 5 965 27 39 6 98 10 235
18 36 2 94 9 130 16 62 10 112 16 225 24 28 1 57 6 65 9 8 3 35 8 60 12 25 3
61 8 80 11 19 4 59 7 87 8 29 0 53 4 53 7 0 4 21 9 48 12 43 5 79 12 92 18 3
1 19 3 35 4 17 1 57 8 90 15 33 8 69 15 80 15 11 1 23 3 28 5 13 5 21 6 72 15
28 4 54 10 59 13 6 3 19 7 30 8 12 2 30 5 41 7 11 2 38 7 60 11 22 4 47 10 55
13 8 4 21 5 28 4 6 -1 12 3 12 8 0 5 10 8 22 6 12 -3 26 -1 32 4 6 4 32 11 57
14 25 3 59 12 75 18 36 15 29 13 89 23 28 4 55 11 60 14 6 4 15 8 20 9 48 12
103 27 115 31 8 3 17 6 20 7 3 1 12 4 20 8 14 5 63 18 85 22 6 1 13 3 18 5 4
1 10 3 15 5 4 1 20 7 35 13 16 7 37 12 47 12 10 0 22 5 25 10 4 6 10 8 15 5 5
-3 11 -1 14 4 3 5 23 12 43 16 21 4 44 12 52 18 8 7 16 11 18 10 1 -2 4 -3 6
-2 1 0 9 2 17 4 33 9 130 44 151 56 13 6 30 13 39 14 8 1 27 7 43 13 48 21 82
35 87 37 3 1 19 7 35 14 17 6 44 17 60 23 17 6 36 16 44 22 7 5 20 11 30 12
21 4 134 57 142 67 3 5 8 8 10 6 2 -1 56 23 120 55 63 31 121 56 127 56 7 0
12 4 12 9 0 5 24 21 54 35 30 15 70 38 90 51 20 14 40 25 43 25 10 0 108 64
111 72 2 5 7 8 12 8 8 0 110 60 120 70 3 3 30 23 60 45 30 22 57 43 58 47 2 5
8 8 13 8 6 0 45 28 87 63 199 162 326 292 461 471 29 39 59 74 65 78 6 4 7 8
3 8 -5 0 0 12 11 28 11 15 30 45 42 67 62 110 79 146 86 179 3 20 13 40 21 45
8 4 14 10 13 12 -3 6 10 58 30 124 17 54 29 130 36 225 1 19 5 55 8 80 2 24 2
49 -2 55 -4 5 -7 28 -8 50 -1 53 -15 168 -22 179 -3 5 -6 21 -7 35 -3 28 -27
100 -57 167 -10 22 -18 48 -18 56 0 9 -4 18 -8 20 -5 2 -28 42 -52 91 -24 48
-48 87 -52 87 -4 0 -8 5 -8 11 0 17 -80 129 -92 129 -6 0 -8 3 -5 6 4 4 -7 23
-24 43 -75 88 -137 156 -173 190 -21 20 -67 63 -101 96 -34 33 -73 69 -86 80
-56 46 -87 71 -113 90 -16 11 -50 37 -76 58 -26 20 -51 37 -54 37 -4 0 -12 5
-19 10 -46 39 -61 49 -87 60 -17 7 -30 16 -30 21 0 5 -7 9 -15 9 -8 0 -15 3
-15 8 0 4 -24 20 -53 36 -28 16 -54 32 -57 35 -3 4 -34 21 -70 40 -36 18 -94
50 -130 71 -35 21 -67 37 -71 34 -4 -2 -10 0 -14 6 -5 8 -133 77 -153 81 -6 2
-43 18 -177 79 -118 53 -134 60 -140 60 -3 0 -25 8 -48 19 -43 19 -78 33 -87
36 -3 1 -21 8 -41 17 -53 23 -306 114 -359 129 -25 7 -48 18 -52 24 -4 5 -8 7
-8 4 0 -4 -28 2 -62 13 -80 25 -297 87 -323 92 -11 2 -33 9 -49 15 -16 7 -31
10 -33 7 -3 -2 -20 2 -39 10 -19 8 -36 14 -39 14 -3 0 -6 0 -7 1 -2 0 -10 2
-18 4 -8 2 -46 10 -85 19 -38 9 -83 18 -100 21 -16 2 -31 4 -32 5 -5 4 -95 21
-138 26 -18 2 -62 9 -125 20 -14 2 -52 6 -85 9 -33 3 -71 8 -85 12 -42 10 -53
12 -105 18 -27 4 -68 9 -90 12 -22 3 -47 5 -55 5 -8 0 -33 6 -55 15 -22 8 -76
17 -120 19 -44 3 -86 7 -93 9 -7 3 -21 -5 -32 -18z"/>
<path d="M15977 10483 c-3 -5 -15 -26 -27 -48 -64 -116 -109 -186 -152 -241
-26 -34 -48 -64 -48 -67 0 -3 -14 -21 -31 -39 -16 -18 -40 -46 -52 -61 -31
-39 -193 -204 -205 -208 -5 -2 -36 -28 -68 -57 -33 -29 -63 -56 -69 -60 -68
-49 -115 -88 -115 -95 0 -4 -5 -5 -10 -2 -6 3 -13 -1 -16 -9 -3 -9 -12 -16
-19 -16 -7 0 -15 -4 -17 -8 -5 -12 -128 -95 -180 -121 -16 -8 -28 -18 -28 -23
0 -4 -4 -8 -9 -8 -5 0 -42 -20 -82 -45 -40 -25 -79 -45 -86 -45 -7 0 -13 -4
-13 -9 0 -5 -22 -18 -50 -30 -27 -12 -50 -26 -50 -31 0 -6 -5 -10 -12 -10 -24
0 -267 -124 -261 -133 3 -6 1 -7 -5 -3 -6 3 -40 -7 -75 -24 -35 -16 -71 -30
-80 -30 -9 0 -18 -4 -21 -9 -5 -8 -113 -52 -198 -82 -21 -7 -38 -17 -38 -21 0
-4 -10 -8 -22 -8 -13 -1 -41 -9 -63 -20 -22 -11 -45 -19 -51 -20 -5 0 -39 -12
-75 -26 -35 -14 -71 -27 -79 -28 -8 -1 -24 -6 -35 -10 -60 -23 -80 -30 -94
-32 -9 -1 -43 -11 -76 -23 -33 -12 -61 -21 -62 -21 -2 0 -4 0 -5 -1 -2 0 -10
-2 -18 -4 -8 -1 -37 -10 -65 -18 -140 -42 -232 -67 -246 -67 -9 0 -32 -7 -52
-15 -19 -8 -68 -20 -109 -26 -40 -6 -78 -15 -84 -20 -6 -5 -32 -12 -58 -15
-25 -4 -46 -9 -46 -13 0 -3 -15 -6 -32 -7 -18 -1 -60 -8 -93 -17 -33 -8 -78
-18 -100 -21 -85 -12 -111 -17 -125 -23 -24 -10 -42 -13 -95 -18 -27 -2 -57
-6 -65 -8 -8 -2 -31 -7 -50 -10 -19 -4 -48 -10 -65 -13 -16 -3 -52 -7 -80 -9
-27 -2 -66 -6 -85 -9 -38 -6 -125 -24 -132 -27 -2 -1 -28 -3 -58 -5 -96 -6
-163 -12 -200 -20 -52 -11 -120 -18 -290 -29 -36 -2 -81 -7 -100 -11 -19 -4
-57 -8 -85 -10 -27 -2 -90 -6 -140 -9 -118 -8 -1447 -14 -1460 -7 -8 5 -54 8
-242 15 -29 1 -53 5 -53 8 0 3 -6 6 -12 6 -7 0 -53 3 -103 7 -241 18 -255 20
-325 33 -25 5 -62 9 -82 8 -21 -1 -38 1 -38 5 0 3 -19 6 -42 7 -73 3 -136 10
-148 18 -6 4 -28 9 -48 10 -20 2 -37 4 -37 5 0 2 -20 3 -45 4 -25 2 -65 6 -90
11 -25 5 -49 9 -55 10 -5 1 -12 3 -15 4 -10 5 -46 11 -95 16 -28 3 -65 9 -82
14 -17 5 -34 7 -37 3 -3 -3 -6 -1 -6 5 0 6 -6 10 -12 10 -25 -2 -134 15 -188
29 -88 23 -92 24 -145 31 -27 3 -54 9 -60 14 -5 4 -48 14 -93 23 -46 9 -87 18
-91 20 -4 3 -77 23 -162 45 -85 22 -174 47 -199 56 -25 9 -54 19 -65 21 -11 3
-24 6 -30 8 -5 2 -23 6 -40 11 -16 4 -34 10 -40 14 -5 3 -21 7 -34 9 -13 2
-42 12 -65 23 -22 10 -49 19 -61 19 -11 0 -38 9 -60 20 -21 11 -54 23 -72 26
-18 3 -36 10 -38 14 -3 5 -31 16 -62 25 -31 9 -66 23 -79 31 -12 9 -28 14 -36
13 -7 -2 -40 10 -73 25 -116 53 -130 59 -149 63 -11 2 -27 10 -35 17 -9 8 -27
17 -41 21 -14 4 -44 18 -67 31 -24 14 -43 23 -43 20 0 -3 -37 15 -82 38 -46
24 -128 67 -183 95 -55 29 -110 62 -123 73 -12 12 -22 18 -22 14 0 -5 -17 4
-37 20 -20 15 -32 21 -28 13 5 -8 -9 0 -31 18 -22 17 -52 37 -67 44 -15 7 -27
16 -27 20 0 4 -8 10 -19 14 -10 3 -31 17 -47 30 -15 13 -30 23 -32 20 -2 -2
-11 4 -21 13 -9 9 -30 26 -45 37 -16 11 -41 30 -56 42 -15 12 -31 19 -35 15
-5 -4 -5 -2 -1 5 4 7 -3 17 -16 24 -13 7 -25 15 -28 18 -3 3 -36 33 -75 65
-60 51 -180 169 -274 271 -16 17 -58 71 -95 120 -36 50 -71 95 -76 102 -6 7
-10 14 -10 16 0 3 -20 38 -45 79 -25 42 -45 80 -45 86 0 6 -3 13 -7 15 -5 3
-8 -50 -8 -116 -1 -127 -9 -224 -25 -292 -5 -22 -7 -41 -5 -44 3 -2 1 -9 -4
-15 -5 -6 -11 -24 -14 -41 -7 -43 -54 -181 -83 -244 -24 -52 -24 -54 -7 -74
10 -12 23 -27 28 -35 21 -27 226 -232 234 -232 4 0 28 -19 53 -42 61 -57 98
-87 229 -188 47 -37 228 -160 235 -160 2 0 10 -5 17 -10 31 -26 86 -58 91 -52
3 3 6 1 6 -4 0 -5 17 -18 37 -29 21 -11 40 -23 43 -26 6 -7 103 -61 165 -92
22 -11 42 -23 45 -26 6 -8 202 -105 212 -106 4 0 13 -6 20 -13 6 -6 15 -12 20
-12 4 0 33 -12 65 -26 31 -15 63 -27 70 -28 7 -1 16 -5 19 -9 4 -4 16 -7 26
-7 10 0 18 -4 18 -10 0 -5 12 -13 28 -16 15 -4 50 -17 77 -29 49 -21 85 -37
95 -40 15 -5 70 -29 100 -45 19 -9 54 -21 77 -25 24 -4 45 -11 48 -16 5 -7 53
-23 100 -33 6 -2 21 -7 35 -13 78 -33 291 -104 325 -108 11 -2 40 -11 65 -20
45 -17 61 -21 114 -30 15 -3 45 -13 65 -21 20 -8 53 -18 75 -21 21 -3 54 -11
72 -19 19 -8 35 -14 36 -13 2 0 14 -2 28 -5 14 -3 36 -7 50 -9 14 -2 32 -7 40
-10 8 -4 29 -8 45 -11 17 -2 31 -5 33 -6 3 -3 87 -20 127 -25 6 -1 24 -7 40
-14 17 -7 51 -14 77 -16 26 -2 68 -11 93 -20 26 -8 66 -18 88 -21 23 -3 58 -7
77 -9 19 -3 55 -9 80 -15 73 -16 132 -24 173 -23 20 0 37 -3 37 -7 0 -4 24
-11 53 -15 28 -5 59 -10 67 -11 25 -5 91 -13 164 -19 39 -3 74 -8 78 -11 11
-7 84 -15 173 -19 39 -2 86 -6 105 -9 19 -3 46 -7 60 -9 14 -1 30 -5 35 -8 6
-4 26 -6 45 -6 19 0 55 -3 80 -7 25 -3 106 -8 180 -12 74 -3 164 -8 200 -11
309 -23 1249 -24 1570 0 36 3 124 8 195 11 72 3 159 9 195 13 36 3 79 8 95 9
17 2 62 8 100 13 39 6 99 13 135 15 95 7 132 12 156 20 20 6 65 11 179 20 28
2 84 11 125 20 68 16 128 24 203 29 15 1 27 5 27 9 0 5 15 8 33 8 17 0 49 5
69 10 21 6 61 12 90 14 29 2 67 9 83 16 31 12 52 17 122 25 24 3 55 10 70 16
16 7 37 13 48 15 67 10 92 15 105 20 8 4 29 8 45 10 17 2 37 7 45 11 8 3 26 8
40 10 14 2 32 6 40 10 8 3 30 7 48 8 18 2 39 8 47 15 13 11 45 19 85 22 8 0
21 5 28 11 6 5 12 6 12 2 0 -4 6 -3 13 2 6 6 28 13 47 17 56 10 72 14 120 32
25 9 56 18 70 20 14 3 43 12 65 20 22 9 47 17 56 19 23 5 168 55 204 70 17 8
68 26 115 41 106 33 232 82 245 95 5 5 16 9 25 9 8 0 31 8 50 19 19 10 46 22
60 26 14 4 48 18 77 31 28 13 59 24 67 24 9 0 16 5 16 10 0 6 6 10 13 10 17 0
337 158 359 177 9 8 23 15 31 17 8 1 21 7 28 12 8 6 28 18 44 26 41 20 79 42
85 49 3 3 42 28 88 55 132 78 214 132 220 147 2 4 9 7 16 7 7 0 22 8 34 18 62
51 140 112 146 112 6 0 18 10 81 65 17 15 50 43 75 63 66 55 135 125 133 134
-2 4 1 7 6 5 11 -2 166 155 174 177 6 16 -31 118 -45 124 -5 2 -6 8 -3 13 3 5
1 17 -4 28 -11 19 -59 202 -67 251 -14 84 -19 161 -19 288 0 78 -1 142 -2 142
-1 0 -4 -3 -6 -7z"/>
<path d="M16315 9394 c-21 -32 -289 -304 -299 -304 -4 0 -30 -21 -58 -47 -27
-27 -58 -53 -69 -59 -11 -5 -16 -13 -13 -17 4 -4 0 -7 -9 -7 -9 0 -17 -4 -17
-8 0 -5 -10 -14 -23 -19 -21 -10 -94 -67 -138 -108 -9 -8 -19 -15 -24 -15 -14
0 -115 -72 -115 -82 0 -5 -4 -7 -8 -4 -5 3 -25 -9 -45 -25 -20 -17 -37 -27
-37 -24 0 4 -15 -3 -32 -17 -18 -13 -44 -29 -58 -36 -14 -7 -45 -26 -70 -42
-25 -16 -61 -37 -80 -47 -19 -9 -41 -23 -48 -30 -7 -7 -22 -13 -31 -13 -10 0
-24 -6 -30 -14 -6 -8 -26 -20 -44 -27 -18 -7 -45 -22 -62 -33 -16 -12 -31 -20
-33 -18 -4 5 -167 -80 -170 -89 -2 -5 -8 -6 -13 -3 -5 3 -26 -4 -45 -15 -19
-12 -41 -21 -47 -21 -7 0 -32 -10 -57 -22 -25 -12 -48 -21 -51 -20 -4 1 -33
-12 -65 -28 -32 -17 -62 -30 -67 -30 -6 0 -35 -12 -66 -27 -31 -15 -58 -28
-61 -28 -3 -1 -18 -7 -33 -13 -16 -7 -34 -12 -41 -12 -7 0 -16 -3 -20 -7 -4
-5 -11 -8 -14 -8 -4 -1 -23 -6 -43 -13 -20 -7 -45 -14 -56 -16 -10 -2 -37 -12
-59 -22 -21 -9 -41 -18 -44 -19 -3 -1 -25 -7 -50 -14 -25 -7 -49 -17 -55 -21
-5 -5 -28 -11 -50 -15 -22 -4 -45 -11 -51 -16 -6 -5 -51 -19 -101 -33 -50 -13
-99 -28 -109 -34 -11 -5 -22 -10 -27 -10 -20 -1 -93 -15 -102 -20 -5 -4 -14
-7 -20 -9 -67 -16 -103 -26 -118 -34 -10 -5 -22 -7 -27 -4 -6 4 -10 1 -10 -4
0 -6 -13 -11 -30 -11 -16 0 -30 -4 -30 -9 0 -5 -9 -7 -20 -4 -11 3 -28 2 -37
-3 -10 -4 -25 -9 -33 -10 -8 -2 -33 -8 -55 -14 -22 -6 -54 -12 -72 -13 -18 -2
-35 -6 -39 -10 -4 -4 -18 -7 -30 -7 -12 0 -35 -5 -51 -12 -15 -6 -44 -13 -63
-14 -40 -4 -88 -13 -110 -21 -38 -15 -75 -22 -150 -29 -36 -4 -70 -11 -76 -16
-7 -5 -16 -8 -20 -6 -12 3 -107 -13 -118 -20 -5 -3 -30 -5 -55 -5 -25 1 -50
-3 -56 -7 -5 -4 -28 -10 -50 -13 -22 -3 -53 -8 -70 -12 -16 -3 -58 -7 -92 -8
-35 -1 -63 -5 -63 -9 0 -5 -24 -8 -53 -8 -30 0 -57 -3 -61 -7 -4 -4 -24 -8
-44 -9 -20 -1 -37 -3 -37 -4 0 -2 -25 -4 -55 -5 -75 -3 -225 -20 -225 -25 0
-1 -25 -3 -55 -5 -30 -1 -62 -5 -70 -8 -8 -3 -91 -9 -185 -13 -93 -4 -199 -9
-235 -11 -36 -2 -144 -6 -240 -9 -96 -2 -182 -7 -190 -10 -20 -8 -724 -9 -737
-1 -5 3 -90 7 -189 8 -98 1 -183 4 -189 8 -5 3 -35 6 -65 7 -137 2 -401 17
-404 23 -2 3 -32 6 -65 5 -34 0 -61 3 -61 8 0 5 -12 8 -27 7 -16 -1 -48 1 -73
6 -25 4 -75 8 -112 8 -38 1 -68 4 -68 7 0 3 -19 7 -42 8 -24 1 -72 6 -108 12
-36 5 -90 12 -120 14 -30 2 -55 5 -55 6 0 1 -16 4 -35 6 -66 7 -110 16 -110
23 0 4 -25 7 -55 7 -30 -1 -55 1 -55 4 0 3 -14 7 -32 8 -17 2 -36 6 -42 11 -6
5 -22 7 -35 5 -13 -3 -29 0 -36 6 -7 6 -17 10 -21 8 -13 -3 -149 15 -156 22
-2 1 -11 3 -22 5 -10 2 -41 9 -70 16 -28 7 -60 13 -71 14 -11 0 -36 5 -55 12
-44 14 -108 27 -137 27 -13 0 -23 3 -23 7 0 4 -25 11 -55 14 -30 4 -55 11 -55
15 0 5 -12 8 -27 8 -16 0 -48 5 -73 13 -25 7 -47 13 -50 13 -3 1 -9 4 -15 8
-5 3 -34 9 -62 13 -29 4 -53 11 -53 16 0 5 -3 8 -7 7 -5 -1 -26 4 -48 10 -22
6 -51 13 -65 16 -14 2 -25 5 -25 6 0 3 -28 10 -62 16 -18 4 -33 10 -33 15 0 5
-14 7 -30 5 -17 -2 -30 0 -30 4 0 4 -12 11 -27 16 -31 8 -32 8 -53 16 -8 3
-31 10 -50 16 -19 6 -58 19 -87 30 -28 11 -54 17 -57 14 -3 -3 -6 0 -6 6 0 6
-15 13 -32 17 -29 5 -76 21 -153 51 -11 4 -30 9 -43 10 -13 2 -38 12 -57 22
-18 11 -47 23 -64 27 -17 4 -31 11 -31 16 0 5 -4 9 -9 9 -5 0 -22 5 -38 12
-15 6 -30 12 -33 13 -6 2 -58 23 -80 32 -8 3 -21 7 -28 9 -8 1 -22 10 -33 20
-10 9 -19 14 -19 11 0 -6 -45 10 -105 38 -16 7 -45 19 -62 25 -18 7 -33 16
-33 21 0 5 -8 9 -18 9 -10 0 -23 5 -30 12 -7 7 -12 9 -12 4 0 -4 -13 2 -29 13
-15 11 -31 18 -35 14 -3 -3 -6 -1 -6 5 0 7 -6 12 -14 12 -8 0 -22 7 -30 16 -9
8 -20 12 -26 9 -5 -3 -10 -2 -10 2 0 5 -9 13 -19 18 -21 11 -136 72 -191 101
-19 11 -40 25 -48 31 -7 7 -30 20 -50 30 -20 9 -39 20 -42 23 -10 12 -70 51
-70 46 0 -3 -9 2 -20 12 -12 9 -24 17 -27 17 -4 0 -21 12 -37 28 -17 15 -34
27 -39 27 -8 0 -70 44 -95 68 -8 7 -27 19 -43 27 -16 9 -29 19 -29 24 0 5 -13
14 -29 21 -16 6 -32 18 -35 26 -3 8 -12 14 -20 14 -7 0 -17 7 -20 16 -3 8 -10
12 -16 9 -5 -3 -10 0 -10 8 0 7 -15 24 -32 37 -18 13 -52 42 -75 63 -24 22
-43 37 -43 33 0 -4 -52 45 -115 109 -63 63 -115 119 -115 123 0 11 -59 67 -64
61 -11 -10 -89 -333 -125 -514 -37 -188 -74 -419 -85 -545 -3 -30 -8 -71 -11
-90 -19 -136 -32 -463 -29 -715 3 -193 18 -471 29 -545 2 -14 7 -52 10 -85 2
-33 7 -76 10 -95 2 -19 7 -55 10 -80 8 -61 46 -291 59 -356 88 -440 231 -897
410 -1307 97 -222 199 -427 209 -420 6 3 7 1 3 -5 -4 -7 9 -39 28 -72 20 -34
36 -63 36 -65 0 -11 157 -271 248 -410 116 -178 319 -455 333 -455 5 0 8 -4 7
-8 -3 -7 37 -61 77 -106 6 -6 23 -27 39 -46 157 -192 521 -564 540 -553 5 3 6
1 3 -4 -6 -9 131 -137 232 -219 13 -10 42 -37 66 -59 49 -47 68 -62 149 -124
34 -25 70 -54 80 -63 11 -10 25 -18 32 -18 7 0 14 -3 16 -8 5 -12 85 -72 96
-72 6 0 12 -4 14 -9 2 -4 59 -45 128 -91 69 -45 137 -91 152 -101 15 -10 29
-19 32 -19 2 0 40 -22 83 -49 85 -52 153 -89 167 -89 5 0 12 -5 15 -10 16 -25
493 -255 713 -343 555 -223 1245 -393 1758 -434 41 -3 84 -8 96 -10 120 -25
998 -25 1118 0 12 2 50 7 86 10 531 47 1153 197 1695 410 274 107 588 253 578
268 -3 6 -1 7 4 4 6 -4 32 5 58 18 148 79 287 158 300 171 8 9 15 13 15 10 0
-9 287 173 400 254 65 47 315 236 340 257 14 12 59 49 100 83 253 210 616 567
747 737 43 56 195 245 203 253 3 3 20 25 38 50 18 25 55 74 81 110 331 451
613 977 818 1525 33 88 68 185 77 215 9 30 21 64 26 75 5 11 22 70 39 130 17
61 35 124 40 140 13 39 52 193 57 225 3 14 9 42 15 63 6 21 12 50 14 65 2 15
6 34 9 42 7 18 61 332 71 405 3 28 8 64 10 80 5 34 11 88 20 185 4 36 8 76 10
89 18 114 26 671 12 886 -4 66 -8 127 -8 135 0 8 -5 58 -10 110 -5 52 -11 122
-14 155 -3 33 -8 67 -10 75 -2 8 -7 38 -10 65 -3 28 -16 111 -30 185 -13 74
-27 151 -29 170 -3 19 -17 85 -31 145 -14 61 -28 121 -31 135 -11 55 -46 185
-52 194 -3 6 -7 21 -8 35 -5 39 -19 45 -39 15z"/>
</g>
</svg>
