<?xml version="1.0" standalone="no"?>
<!DOCTYPE svg PUBLIC "-//W3C//DTD SVG 20010904//EN"
 "http://www.w3.org/TR/2001/REC-SVG-20010904/DTD/svg10.dtd">
<svg version="1.0" xmlns="http://www.w3.org/2000/svg"
 width="512.000000pt" height="512.000000pt" viewBox="0 0 512.000000 512.000000"
 preserveAspectRatio="xMidYMid meet">
<metadata>
Created by potrace 1.11, written by Peter Selinger 2001-2013
</metadata>
<g transform="translate(0.000000,512.000000) scale(0.100000,-0.100000)"
fill="#000000" stroke="none">
<path d="M2613 4831 c-34 -22 -84 -97 -90 -139 -17 -114 10 -189 135 -362 42
-58 90 -136 108 -175 31 -67 33 -75 29 -170 -3 -94 -28 -195 -60 -245 -5 -8
-22 -40 -37 -70 -15 -30 -37 -68 -48 -85 -11 -16 -23 -37 -27 -45 -4 -8 -19
-35 -33 -60 -32 -54 -87 -193 -95 -235 -26 -155 -20 -288 16 -394 11 -31 21
-63 23 -71 4 -16 42 -90 67 -127 20 -33 30 -28 16 10 -7 19 -11 90 -11 172 0
154 18 244 75 380 36 86 165 279 288 431 15 19 58 107 69 144 23 71 30 147 19
195 -30 128 -62 180 -213 345 -139 152 -212 274 -215 357 -2 50 10 121 22 129
11 6 12 34 2 34 -5 0 -22 -9 -40 -19z"/>
<path d="M2212 4168 c-46 -22 -81 -73 -88 -126 -6 -48 4 -76 21 -62 36 30 100
16 133 -30 25 -33 35 -114 20 -166 -5 -19 -29 -76 -52 -127 -68 -145 -92 -211
-123 -337 -3 -14 -7 -77 -9 -140 -2 -94 1 -128 19 -185 11 -38 23 -72 26 -75
3 -3 14 -22 23 -42 22 -47 80 -111 135 -149 49 -34 54 -30 18 17 -100 132
-151 336 -118 479 14 61 66 178 112 250 30 47 59 102 122 228 18 35 39 144 39
204 0 122 -78 251 -161 267 -19 3 -44 8 -56 10 -11 3 -39 -5 -61 -16z"/>
<path d="M2438 3512 c-47 -3 -47 -3 -87 -73 -36 -62 -37 -74 -10 -71 4 1 34 2
67 3 33 1 64 5 69 8 4 3 22 34 39 68 l32 61 -32 4 c-17 1 -52 2 -78 0z"/>
<path d="M2098 3485 c-3 -4 -21 -8 -39 -10 -58 -8 -247 -48 -289 -61 -8 -3
-16 -5 -17 -5 -2 0 -42 -13 -90 -30 -559 -195 -744 -539 -446 -826 54 -52 221
-165 238 -162 4 0 16 -6 28 -14 58 -38 369 -138 469 -151 18 -2 44 -7 58 -10
41 -10 120 -21 235 -33 157 -16 597 -8 698 13 26 5 84 15 112 18 97 12 350 82
450 125 69 29 219 110 250 133 104 80 171 152 204 221 22 45 43 138 36 159 -2
7 -6 30 -8 51 -12 94 -118 230 -249 317 -184 121 -449 217 -693 250 -38 5 -84
12 -101 16 -30 6 -34 2 -77 -57 -25 -35 -44 -65 -43 -67 2 -1 29 -5 62 -8 58
-5 95 -10 144 -19 14 -3 39 -7 55 -10 17 -3 41 -7 55 -10 14 -3 38 -8 53 -10
93 -17 329 -109 365 -142 7 -7 17 -13 21 -13 4 0 28 -20 54 -45 68 -67 87
-140 55 -207 -28 -58 -91 -116 -175 -160 -47 -24 -183 -78 -183 -72 0 3 -12
-2 -27 -9 -26 -13 -182 -50 -210 -50 -7 0 -13 -3 -13 -6 0 -3 -10 -6 -22 -7
-27 0 -125 -13 -159 -19 -68 -14 -529 -26 -529 -15 0 3 -24 5 -53 5 -57 -1
-202 15 -287 30 -14 3 -40 7 -58 10 -18 3 -61 12 -95 21 -34 8 -69 16 -77 18
-96 24 -232 83 -311 136 -108 74 -146 162 -108 250 19 41 90 120 109 120 5 0
15 6 22 13 13 12 70 40 138 70 74 31 250 80 335 93 17 2 39 6 50 8 11 3 25 5
31 5 6 1 16 20 23 44 7 23 17 53 23 66 8 23 -1 48 -14 36z"/>
<path d="M1082 2575 c1 -22 -7 -69 -17 -104 l-18 -64 54 -51 c59 -55 161 -126
249 -173 53 -28 184 -85 205 -90 6 -1 35 -11 65 -22 52 -20 241 -71 285 -77
11 -1 43 -7 71 -13 45 -9 72 -13 179 -27 192 -25 634 -24 786 1 13 2 42 6 64
10 244 35 486 104 671 191 32 15 61 30 64 33 3 3 23 15 45 26 22 11 52 29 66
40 15 11 39 29 55 40 15 11 50 41 77 66 48 46 49 48 38 82 -14 43 -22 81 -25
125 -4 44 -11 48 -26 12 -7 -16 -16 -30 -21 -30 -5 0 -9 -5 -9 -11 0 -21 -144
-150 -192 -171 -16 -7 -28 -16 -28 -19 0 -10 -210 -106 -290 -132 -98 -33
-193 -61 -201 -59 -4 1 -22 -3 -40 -9 -19 -6 -47 -12 -64 -14 -16 -3 -41 -7
-55 -10 -14 -3 -45 -8 -70 -11 -25 -3 -54 -8 -65 -10 -135 -27 -717 -25 -808
2 -10 3 -33 7 -50 9 -44 4 -109 15 -126 21 -8 2 -30 7 -50 10 -50 8 -233 61
-311 90 -100 39 -227 104 -294 153 -74 53 -166 141 -166 158 0 7 -3 13 -8 13
-4 0 -15 12 -24 28 l-17 27 1 -40z"/>
<path d="M991 2336 c-11 -13 -40 -157 -49 -240 -9 -82 -8 -304 1 -390 5 -39
17 -106 28 -150 11 -45 22 -92 25 -105 10 -49 87 -228 134 -316 147 -272 397
-517 670 -657 112 -57 294 -123 395 -143 17 -3 41 -8 55 -11 14 -2 41 -7 60
-9 19 -3 55 -7 80 -11 86 -11 307 -4 395 12 182 34 361 92 490 160 353 184
618 478 764 846 27 70 68 205 77 258 27 156 31 211 29 355 -2 88 -6 176 -10
195 -26 134 -43 211 -48 216 -2 2 -29 -21 -61 -52 -32 -30 -91 -77 -130 -103
-70 -47 -225 -131 -242 -131 -5 0 -20 -6 -34 -13 -108 -55 -416 -136 -630
-164 -249 -32 -631 -36 -838 -7 -20 3 -53 7 -72 9 -39 4 -89 12 -135 22 -16 3
-37 7 -45 8 -8 1 -46 10 -85 20 -38 9 -77 18 -85 19 -8 1 -22 5 -30 8 -8 3
-60 20 -115 38 -55 18 -127 45 -160 60 -33 15 -75 33 -92 41 -18 8 -33 17 -33
21 0 5 -6 8 -13 8 -21 0 -169 104 -230 162 -38 35 -61 51 -66 44z"/>
</g>
</svg>
